# xmcd CD database file
#
# Track frame offsets:
#	150
#	15051
#	25911
#	41532
#	54274
#	69291
#	82365
#	100599
#	113124
#	126750
#	140606
#	156442
#	171059
#	183477
#	197873
#	215841
#	236030
#	249109
#	262384
#	278488
#
# Disc length: 3906 seconds
#
# Revision: 1
# Processed by: cddbd v1.5.2PL0 Copyright (c) Steve Scherf et al.
# Submitted via: CDex 1.51
#
DISCID=190f4014
DTITLE=Various Artist - 100 Oorspronklike afrikaanse treffers - cd2
DYEAR=1900
DGENRE=
TTITLE0=Lucas Maree - Ek kon doen met n miljoen
TTITLE1=Carika Keuzenkamp - Dit reen in tsitisikama
TTITLE2=Danie Niehaus - Jy is vrou
TTITLE3=Danie Botha - Wenners
TTITLE4=Lloyd Ross - Vyfster
TTITLE5=Acapella koor - Die lewe sonder jou
TTITLE6=Sonja Heroldt - Waterblommetjies
TTITLE7=Glennys Lynne - Kierie-he kierie-ho
TTITLE8=Ge Korsten - Sonder jou
TTITLE9=Min Shaw - Ek is baie lief vir jou
TTITLE10=Marie van Zyl - Daar's n man op die grens
TTITLE11=Carike Keuzenkamp - Byeboerwa
TTITLE12=Herbie and Spence - Heidi
TTITLE13=Anneli van Rooyen - Eerste liefde
TTITLE14=Anton Goosen - Kruidjie roer my nie
TTITLE15=Laurika Rauch - Op blouberg se strand
TTITLE16=Leonora Veenemens - Liefste madelein
TTITLE17=Rudi Netz - My beminde
TTITLE18=Joanna Field - Silwermaan
TTITLE19=Ge Korsten - Seeman
EXTD=
EXTT0=
EXTT1=
EXTT2=
EXTT3=
EXTT4=
EXTT5=
EXTT6=
EXTT7=
EXTT8=
EXTT9=
EXTT10=
EXTT11=
EXTT12=
EXTT13=
EXTT14=
EXTT15=
EXTT16=
EXTT17=
EXTT18=
EXTT19=
PLAYORDER=
